<svg width="30" height="31" viewBox="0 0 30 31" fill="none" xmlns="http://www.w3.org/2000/svg">
<path d="M19.6572 21.105V9.86736C19.657 9.79937 19.65 9.73158 19.6364 9.66496C21.1154 9.30326 22.4555 8.51486 23.49 7.39776C23.89 7.00736 22.4772 5.54816 22.0732 5.93776C22.05 5.96016 19.73 8.14496 15.1548 8.14496C15.1348 8.14496 15.1164 8.14976 15.0964 8.15056C15.0764 8.15136 15.058 8.14496 15.038 8.14496C10.5228 8.14496 8.22442 6.03456 8.11962 5.93616C7.71962 5.54976 6.30282 7.00896 6.70682 7.39936C7.9132 8.35879 9.29257 9.07767 10.77 9.51696C10.7418 9.6085 10.7267 9.70358 10.7252 9.79936V21.2258C9.2642 21.6663 7.90026 22.3806 6.70602 23.3306C6.30602 23.7194 7.14762 25.073 7.41562 25.073C7.67675 25.0734 7.92812 24.9738 8.11802 24.7946C8.21322 24.7042 10.5132 22.5858 15.0372 22.5858C15.0572 22.5858 15.0764 22.581 15.0956 22.5794C15.1148 22.5778 15.134 22.5858 15.154 22.5858C19.6724 22.5858 21.9716 24.6986 22.0732 24.7946C22.2626 24.976 22.5149 25.0772 22.7772 25.077C23.0436 25.077 23.89 23.721 23.486 23.3314C22.45 22.237 21.1208 21.4641 19.6572 21.105ZM12.766 9.98496C13.5167 10.1119 14.2767 10.1751 15.038 10.1738C15.058 10.1738 15.0772 10.169 15.0964 10.1674C15.1156 10.1658 15.1348 10.1738 15.1548 10.1738C15.9597 10.1739 16.7639 10.125 17.5628 10.0274V20.6994C16.7639 20.6017 15.9597 20.5528 15.1548 20.553C15.1348 20.553 15.1164 20.5578 15.0964 20.5586C15.0764 20.5594 15.058 20.553 15.038 20.553C14.2767 20.5516 13.5167 20.6148 12.766 20.7418V9.98496Z" fill="#232323"/>
</svg>
