<svg width="30" height="31" viewBox="0 0 30 31" fill="none" xmlns="http://www.w3.org/2000/svg">
<path d="M25.1794 19.368C27.0498 15.616 26.8122 12.1848 25.6442 9.84798C25.5468 9.6632 25.4092 9.5026 25.2415 9.378C25.0739 9.2534 24.8804 9.16797 24.6754 9.12799C24.3682 9.04662 24.0423 9.07491 23.7538 9.20798C22.8073 9.77378 21.9802 10.5186 21.3186 11.4008C21.2434 11.4928 21.1706 11.588 21.0994 11.6832V10.3232C21.0994 7.85839 20.2362 5.25998 17.7394 5.25998C17.046 5.30751 16.3707 5.50191 15.7582 5.83031C15.1456 6.15871 14.6099 6.61359 14.1866 7.16479C13.6674 5.97998 13.077 5.25998 11.713 5.25998C11.0721 5.28247 10.4448 5.45132 9.87917 5.75361C9.31356 6.0559 8.82463 6.4836 8.4498 7.00398C7.74607 5.6568 6.76995 4.47064 5.5834 3.52079C5.117 3.16319 3.8346 4.86398 4.3002 5.22079C5.0314 5.78079 6.9282 7.62079 6.9282 9.38078V22.0928C6.9282 22.6832 9.0474 22.6832 9.0474 22.0928V9.54398C9.6658 8.29278 10.493 7.38398 11.2874 7.38398C12.2042 7.38398 12.9522 9.07679 12.9522 10.316V22.1592C12.9522 22.7488 15.0714 22.7488 15.0714 22.1592V10.3144C15.0714 10.224 15.0714 9.64399 15.0674 9.55279C15.6842 8.30079 16.5154 7.38239 17.3138 7.38239C18.2306 7.38239 18.9786 9.07519 18.9786 10.3144V22.052C18.9689 22.4144 18.9925 22.777 19.049 23.1352C18.4431 23.5321 17.7883 23.8488 17.101 24.0776C16.5658 24.3176 17.1234 26.1232 17.5298 26.1232C17.6763 26.1128 17.8206 26.0821 17.9586 26.032C18.6779 25.8724 19.3536 25.5576 19.9386 25.1096C20.6697 26.2581 21.6855 27.1979 22.8874 27.8376C23.0692 27.9733 23.2901 28.0466 23.517 28.0464C23.8418 28.0464 24.8482 26.6248 24.377 26.2736C23.5058 25.624 22.5074 25.388 21.645 23.8736C23.1252 22.6354 24.3293 21.1005 25.1794 19.368ZM21.0994 15.348C21.3661 14.4326 21.8645 13.6015 22.5466 12.9352C22.9786 12.4808 23.9514 11.5272 24.0954 11.7576C24.8906 13.0312 24.5754 15.8544 23.245 18.496C22.7089 19.6213 21.9834 20.646 21.1002 21.5256V15.3448L21.0994 15.348Z" fill="#232323"/>
</svg>
