<svg width="30" height="31" viewBox="0 0 30 31" fill="none" xmlns="http://www.w3.org/2000/svg">
<path d="M22.5591 13.1644C21.8164 13.1642 21.0822 13.3231 20.406 13.6304C19.7299 13.9378 19.1274 14.3864 18.6391 14.946C18.6055 14.3012 18.5879 13.646 18.5727 13.014C18.4887 9.66604 17.6279 5.87164 14.5807 5.87164C11.9351 5.87164 11.0367 9.19724 10.0911 12.0788C9.85111 11.366 9.55911 10.7188 9.36631 10.2284C8.45911 7.93004 6.59431 6.46844 4.63751 6.46844C4.05431 6.46764 4.05431 8.56044 4.63671 8.56044C5.47991 8.56044 6.97511 9.83164 7.63591 11.366C8.33728 12.9671 8.8384 14.6486 9.12791 16.3724C9.23191 16.8524 11.0791 16.8908 11.1511 16.402C11.6823 12.782 12.7743 7.96524 14.5799 7.96524C15.5687 7.96524 16.4055 10.794 16.4623 13.0668C16.4306 14.8951 16.6124 16.7207 17.0039 18.5068C16.3978 20.1107 15.1864 21.4125 13.6303 22.1324C12.1028 22.5698 10.5265 22.8141 8.93831 22.8596C8.36311 22.7796 8.05831 24.8484 8.63511 24.9308C10.5531 24.9053 12.4596 24.6313 14.3071 24.1156C15.8856 23.5482 17.2483 22.5037 18.2063 21.1268C18.6898 21.8871 19.3632 22.5081 20.16 22.9286C20.9568 23.3491 21.8495 23.5546 22.75 23.5248C23.6505 23.4949 24.5276 23.2309 25.2948 22.7585C26.0621 22.2862 26.6929 21.622 27.1251 20.8315C27.5572 20.0409 27.7758 19.1514 27.7592 18.2506C27.7426 17.3497 27.4914 16.4688 27.0304 15.6947C26.5694 14.9206 25.9146 14.2801 25.1305 13.8364C24.3463 13.3927 23.4601 13.1611 22.5591 13.1644ZM22.5591 21.3844C21.9543 21.3795 21.3646 21.1957 20.8641 20.8562C20.3636 20.5166 19.9749 20.0365 19.7468 19.4764C19.5188 18.9163 19.4616 18.3011 19.5826 17.7086C19.7036 17.116 19.9973 16.5725 20.4267 16.1466C20.856 15.7207 21.4019 15.4314 21.9954 15.3152C22.5889 15.199 23.2035 15.2611 23.7618 15.4937C24.3201 15.7262 24.797 16.1188 25.1325 16.622C25.468 17.1252 25.6471 17.7165 25.6471 18.3212C25.6429 19.1366 25.3154 19.9171 24.7365 20.4913C24.1576 21.0656 23.3745 21.3868 22.5591 21.3844Z" fill="#232323"/>
</svg>
