<svg width="30" height="31" viewBox="0 0 30 31" fill="none" xmlns="http://www.w3.org/2000/svg">
<path d="M23.6496 23.6051C22.884 24.8923 21.2376 26.3523 19.8424 25.5803C18.5328 24.8563 17.9528 22.3379 19.7864 18.4987C22.0224 13.8171 22.4192 9.26827 20.8232 6.62747C20.3903 5.90123 19.7731 5.3024 19.034 4.89172C18.295 4.48105 17.4605 4.27313 16.6152 4.28907C15.6929 4.21313 14.7671 4.38664 13.9348 4.79143C13.1026 5.19623 12.3945 5.8174 11.8848 6.58987C10.716 8.38907 10.5112 10.1539 11.2272 13.1803C10.7864 13.0458 10.3281 12.9773 9.8672 12.9771C8.91418 12.9649 7.97905 13.2363 7.1807 13.7569C6.38234 14.2775 5.75682 15.0237 5.38365 15.9008C5.01049 16.7778 4.90653 17.7459 5.08501 18.6822C5.26348 19.6184 5.71633 20.4804 6.38596 21.1586C7.0556 21.8369 7.91179 22.3006 8.84568 22.491C9.77957 22.6814 10.749 22.5898 11.6307 22.2278C12.5124 21.8659 13.2665 21.2499 13.7972 20.4582C14.328 19.6666 14.6113 18.735 14.6112 17.7819C14.6099 17.275 14.5289 16.7716 14.3712 16.2899C14.3636 16.1752 14.3365 16.0627 14.2912 15.9571C12.6176 12.2483 12.3288 9.59387 13.5568 7.70347C13.884 7.21833 14.3379 6.83219 14.8693 6.58705C15.4006 6.3419 15.989 6.24714 16.5704 6.31307C17.0792 6.29014 17.5847 6.40571 18.033 6.64747C18.4813 6.88923 18.8556 7.24812 19.116 7.68587C20.3416 9.71307 19.8976 13.6107 17.9848 17.6155C15.5664 22.6803 16.6968 26.1603 18.8904 27.3635C19.4103 27.6453 19.9903 27.7981 20.5816 27.8091C22.5504 27.8723 24.536 26.0491 25.3656 24.6499C25.6504 24.1707 23.9352 23.1259 23.6496 23.6051ZM9.8664 20.5563C9.31553 20.5634 8.77498 20.4066 8.31348 20.1057C7.85198 19.8048 7.49037 19.3735 7.27463 18.8666C7.0589 18.3597 6.99877 17.8001 7.10191 17.2589C7.20505 16.7177 7.46679 16.2194 7.85385 15.8274C8.24092 15.4354 8.73582 15.1673 9.27563 15.0573C9.81545 14.9472 10.3758 15.0002 10.8854 15.2095C11.395 15.4187 11.8309 15.7748 12.1377 16.2324C12.4444 16.6901 12.6081 17.2286 12.608 17.7795C12.6116 18.5109 12.3251 19.214 11.8111 19.7345C11.2972 20.2551 10.5979 20.5506 9.8664 20.5563Z" fill="#232323"/>
</svg>
