<svg width="30" height="31" viewBox="0 0 30 31" fill="none" xmlns="http://www.w3.org/2000/svg">
<path d="M26.6302 7.59443C26.2153 7.02306 25.6624 6.56618 25.023 6.26651C24.3837 5.96684 23.6788 5.83414 22.9742 5.88083C19.0134 5.88083 16.6294 10.3608 15.3974 15.6096C14.1662 10.3608 11.7822 5.88083 7.82142 5.88083C7.11701 5.83404 6.41223 5.96652 5.7729 6.2659C5.13356 6.56529 4.58052 7.0218 4.16542 7.59283C2.47182 10.024 4.05742 13.0176 4.47022 14.1736C4.67742 14.752 6.75502 13.9968 6.55022 13.4184C5.86782 11.5088 5.16942 10.0304 5.97422 8.87443C6.18588 8.59378 6.46881 8.37491 6.79364 8.24056C7.11848 8.10621 7.47335 8.06128 7.82142 8.11043C9.10782 8.11043 10.9662 9.04803 12.5094 13.5152C13.6895 17.2536 14.2774 21.1535 14.2518 25.0736C14.2518 25.6888 16.5446 25.6888 16.5446 25.0736C16.5189 21.1535 17.1068 17.2535 18.287 13.5152C19.831 9.04803 21.6886 8.11043 22.975 8.11043C23.3235 8.06124 23.6788 8.10631 24.0039 8.24095C24.329 8.37559 24.6122 8.59489 24.8238 8.87603C25.6286 10.032 24.9366 11.5104 24.2542 13.42C24.0478 13.9984 26.1254 14.7544 26.3342 14.1752C26.7446 13.0192 28.3238 10.0256 26.6302 7.59443Z" fill="#232323"/>
</svg>
