<svg width="30" height="31" viewBox="0 0 30 31" fill="none" xmlns="http://www.w3.org/2000/svg">
<path d="M26.1146 18.0012C26.1261 17.3769 26.0131 16.7566 25.7822 16.1765C25.5512 15.5964 25.207 15.0681 24.7696 14.6225C24.3321 14.1769 23.8103 13.823 23.2345 13.5814C22.6588 13.3398 22.0406 13.2153 21.4162 13.2153C20.7918 13.2153 20.1737 13.3398 19.5979 13.5814C19.0221 13.823 18.5003 14.1769 18.0629 14.6225C17.6254 15.0681 17.2812 15.5964 17.0502 16.1765C16.8193 16.7566 16.7063 17.3769 16.7178 18.0012C16.7158 18.7803 16.9029 19.5482 17.2629 20.239C17.623 20.9299 18.1453 21.5231 18.785 21.9676C17.31 22.3048 15.8012 22.4713 14.2882 22.4636C14.2642 22.4636 14.2426 22.4692 14.2186 22.4708C14.1946 22.4724 14.173 22.4636 14.149 22.4636C8.6674 22.4636 5.7986 20.4636 5.7658 20.4388C5.3202 20.1156 4.1722 21.7612 4.617 22.0852C4.7514 22.1836 7.977 24.4852 14.149 24.4852C14.173 24.4852 14.1954 24.4796 14.2186 24.478C14.2418 24.4764 14.2642 24.4852 14.2882 24.4852C19.5394 24.4852 22.657 22.8196 23.5538 22.2628C24.3288 21.8536 24.977 21.2403 25.4284 20.4891C25.8798 19.7379 26.1171 18.8776 26.1146 18.0012ZM21.4162 20.7708C20.8664 20.7807 20.3261 20.6266 19.8641 20.3283C19.4022 20.03 19.0395 19.6009 18.8223 19.0958C18.605 18.5906 18.5431 18.0322 18.6444 17.4917C18.7456 16.9512 19.0055 16.4531 19.3909 16.0608C19.7762 15.6685 20.2697 15.3998 20.8083 15.2889C21.3469 15.1781 21.9063 15.2301 22.4153 15.4383C22.9242 15.6465 23.3597 16.0015 23.6662 16.4581C23.9726 16.9147 24.1363 17.4521 24.1362 18.002C24.1367 18.4614 24.0233 18.9138 23.8062 19.3186C23.5891 19.7235 23.2751 20.0682 22.8922 20.322C22.8155 20.3507 22.7426 20.3889 22.6754 20.4356C22.6754 20.4356 22.6394 20.4612 22.5786 20.4996C22.2168 20.6773 21.8193 20.77 21.4162 20.7708ZM8.901 17.1484C10.1592 17.1347 11.3606 16.6224 12.2415 15.7238C13.1223 14.8252 13.6107 13.6139 13.5994 12.3556C13.6016 11.5752 13.4141 10.8059 13.053 10.1139C12.6919 9.422 12.1681 8.8282 11.5266 8.38364C13.0038 8.04917 14.5144 7.88463 16.029 7.89324C16.053 7.89324 16.0754 7.88764 16.0986 7.88604C16.1218 7.88444 16.1442 7.89324 16.1674 7.89324C21.6362 7.89324 24.505 9.88684 24.5506 9.91804C24.7168 10.0391 24.917 10.1044 25.1226 10.1044C25.4314 10.1044 26.1458 8.59644 25.7002 8.27164C25.5658 8.17324 22.3402 5.87164 16.1674 5.87164C16.1434 5.87164 16.121 5.87724 16.0986 5.87884C16.0762 5.88044 16.0522 5.87564 16.029 5.87564C10.7802 5.87564 7.6634 7.53964 6.765 8.09804C5.98963 8.50605 5.34071 9.1185 4.8886 9.86901C4.43648 10.6195 4.19842 11.4795 4.2002 12.3556C4.1889 13.6143 4.6776 14.826 5.55898 15.7246C6.44036 16.6233 7.64236 17.1354 8.901 17.1484ZM8.901 9.58844C9.45104 9.5778 9.99178 9.7312 10.4543 10.0291C10.9168 10.327 11.2801 10.7559 11.4979 11.261C11.7157 11.7662 11.7781 12.3248 11.6772 12.8656C11.5763 13.4064 11.3166 13.9049 10.9312 14.2976C10.5459 14.6902 10.0523 14.9591 9.51347 15.0702C8.97465 15.1812 8.41498 15.1292 7.90581 14.9209C7.39664 14.7125 6.96105 14.3573 6.65458 13.9004C6.3481 13.4436 6.18463 12.9058 6.185 12.3556C6.18353 11.8972 6.29538 11.4456 6.5106 11.0408C6.72582 10.636 7.03773 10.2908 7.4186 10.0356C7.50055 10.0054 7.57805 9.9642 7.649 9.91324C7.649 9.91324 7.6794 9.89164 7.729 9.85724C8.09402 9.67942 8.49498 9.58774 8.901 9.58924V9.58844Z" fill="#232323"/>
</svg>
