<svg width="30" height="31" viewBox="0 0 30 31" fill="none" xmlns="http://www.w3.org/2000/svg">
<path d="M22.8944 24.817C22.8712 24.7898 20.7344 22.097 20.3568 17.137H22.4824C23.1224 17.137 23.1224 14.9178 22.4824 14.9178H20.3128C20.4952 9.49143 22.852 6.73303 22.8976 6.67783C23.3136 6.19783 21.568 4.68343 21.1488 5.16503C21.024 5.30823 18.1888 8.54583 17.9968 14.917H13.684C13.496 8.54503 10.3768 5.30743 10.2512 5.16663C9.83355 4.68663 8.09115 6.19543 8.50235 6.67943C8.52795 6.70663 11.184 9.46583 11.368 14.9162H8.67995C8.03995 14.9162 8.03995 17.1354 8.67995 17.1354H11.32C11.1749 19.9228 10.1924 22.6017 8.50075 24.8218C8.08475 25.3018 10.0208 26.597 10.2488 26.3346C12.3178 23.7005 13.5044 20.4815 13.64 17.1346H18.0352C18.4296 22.965 21.0272 26.197 21.1463 26.3346C21.3776 26.597 23.3136 25.2986 22.8944 24.817Z" fill="#232323"/>
</svg>
