<svg width="30" height="31" viewBox="0 0 30 31" fill="none" xmlns="http://www.w3.org/2000/svg">
<path d="M28.4174 23.9815L25.5798 21.1015C25.1934 20.7071 23.7646 22.1039 24.151 22.4983L25.3718 23.7295C24.3854 23.8095 22.787 23.7599 21.899 23.0175C21.6589 22.8019 21.4715 22.5341 21.3514 22.2346C21.2313 21.9351 21.1816 21.612 21.2062 21.2903V9.86711C21.2062 7.56391 20.0742 5.11351 17.7222 5.11351C17.0741 5.16182 16.4435 5.34642 15.8716 5.65522C15.2998 5.96403 14.7996 6.39008 14.4038 6.90551C13.9126 5.80951 13.3342 5.11271 12.0542 5.11271C11.455 5.13796 10.8696 5.29996 10.3426 5.58629C9.81573 5.87263 9.36131 6.27572 9.01416 6.76471C8.34605 5.50626 7.42359 4.40046 6.30536 3.51751C5.86616 3.18391 4.65576 4.76951 5.09416 5.10711C5.78376 5.63111 7.23816 7.35111 7.23816 8.99271V21.4287C7.23816 21.9807 9.36856 21.9807 9.36856 21.4287V9.06711C9.95256 7.89751 10.915 7.14151 11.6662 7.14151C12.531 7.14151 13.2598 8.70871 13.2598 9.86631V21.4895C13.2598 22.0407 15.2598 22.0407 15.2598 21.4895V9.86711C15.2598 9.76951 15.2598 9.13511 15.255 9.03671C15.843 7.87111 16.587 7.14231 17.335 7.14231C18.7446 7.14231 19.2102 8.70951 19.2102 9.86711V21.2879C19.1842 21.9016 19.2969 22.5133 19.54 23.0775C19.7831 23.6416 20.1502 24.1437 20.6142 24.5463C21.7863 25.3976 23.2136 25.8237 24.6606 25.7543C24.8854 25.7543 25.095 25.7463 25.2862 25.7351L24.0302 26.9975C23.747 27.2975 25.1846 28.6775 25.3806 28.4727L28.4206 25.3751C28.6018 25.1883 28.7029 24.938 28.7023 24.6777C28.7017 24.4173 28.5995 24.1675 28.4174 23.9815Z" fill="#232323"/>
</svg>
