<svg width="30" height="31" viewBox="0 0 30 31" fill="none" xmlns="http://www.w3.org/2000/svg">
<path d="M24.9242 6.18016C24.8196 6.07605 24.6944 5.99494 24.5567 5.94204C24.4189 5.88914 24.2716 5.86561 24.1242 5.87296L15.1538 6.11296C14.569 6.14016 14.5202 8.27296 15.1066 8.24256L21.6346 8.19376L13.0826 16.5714L10.2402 13.7458C9.82582 13.3346 8.32742 14.825 8.74102 15.2362L11.5834 18.0618L6.67062 22.9474C6.25702 23.3586 7.77782 24.7546 8.16982 24.4378L13.0826 19.5522L16.0114 22.4642C16.4482 22.8242 17.8098 21.2714 17.3962 20.8642L14.5818 18.0642L23.049 9.60656L22.8658 16.3114C22.8378 16.893 24.8186 16.9762 24.8458 16.4122L25.233 6.97216C25.2395 6.82592 25.2154 6.67993 25.1622 6.54355C25.1091 6.40717 25.028 6.28339 24.9242 6.18016Z" fill="#232323"/>
</svg>
