<svg width="30" height="31" viewBox="0 0 30 31" fill="none" xmlns="http://www.w3.org/2000/svg">
<path d="M25.88 6.21606C21.18 5.02726 19.6728 7.27366 18.4616 9.07526C17.5456 10.4417 17.3696 12.0633 15.3056 12.0633C15.2688 12.0633 15.2344 12.0705 15.1992 12.0737H15.1192C15.0839 12.0684 15.0484 12.0649 15.0128 12.0633C12.9488 12.0633 12.7728 10.7129 11.856 9.34326C10.6464 7.54486 9.13922 4.98646 4.44002 6.17606C3.88002 6.31846 4.40242 8.34406 4.96162 8.19046C9.57362 6.92646 10.2352 12.8153 11.6056 13.1249C10.6815 13.7455 9.93367 14.5946 9.43478 15.5898C8.93589 16.5849 8.70292 17.6921 8.75851 18.8039C8.8141 19.9157 9.15636 20.9942 9.75203 21.9346C10.3477 22.875 11.1765 23.6453 12.1579 24.1707C13.1393 24.696 14.24 24.9586 15.3529 24.9328C16.4657 24.9069 17.553 24.5937 18.509 24.0234C19.465 23.4531 20.2572 22.6452 20.8087 21.6782C21.3601 20.7112 21.652 19.618 21.656 18.5049C21.6535 17.4331 21.3823 16.379 20.8671 15.4391C20.352 14.4993 19.6094 13.7036 18.7072 13.1249C20.3072 12.7929 20.5952 6.95526 25.352 8.23046C25.916 8.38086 26.44 6.35526 25.88 6.21606ZM15.16 22.8537C14.302 22.8437 13.466 22.5802 12.7574 22.0962C12.0488 21.6123 11.4991 20.9296 11.1776 20.134C10.8561 19.3383 10.7771 18.4654 10.9506 17.625C11.1241 16.7846 11.5423 16.0143 12.1526 15.4111C12.7628 14.8078 13.5379 14.3985 14.3802 14.2347C15.2226 14.0709 16.0945 14.16 16.8864 14.4906C17.6782 14.8212 18.3546 15.3787 18.8303 16.0929C19.3061 16.807 19.56 17.6459 19.56 18.5041C19.5524 19.664 19.0848 20.7736 18.2598 21.5891C17.4349 22.4046 16.32 22.8594 15.16 22.8537Z" fill="#232323"/>
</svg>
