<svg width="30" height="31" viewBox="0 0 30 31" fill="none" xmlns="http://www.w3.org/2000/svg">
<path d="M26.7244 19.9635H4.63321C4.05881 19.9635 4.05881 22.0051 4.63321 22.0051H26.7244C27.298 22.0019 27.298 19.9635 26.7244 19.9635ZM4.63321 16.4875H12.3932C12.5378 16.4871 12.6806 16.4562 12.8124 16.3968C12.9442 16.3374 13.062 16.2508 13.158 16.1427C13.2806 16.0581 13.3829 15.9475 13.4577 15.8187C13.5325 15.6899 13.5779 15.5462 13.5907 15.3978C13.6035 15.2494 13.5833 15.1 13.5316 14.9604C13.4799 14.8207 13.3979 14.6942 13.2916 14.5899C12.9007 14.1845 12.6154 13.6891 12.461 13.1474C12.3065 12.6058 12.2876 12.0345 12.406 11.4838C12.5243 10.9331 12.7762 10.42 13.1395 9.9896C13.5028 9.5592 13.9664 9.22475 14.4894 9.01569C15.0124 8.80663 15.5788 8.72937 16.1387 8.79073C16.6986 8.85209 17.2348 9.05018 17.7001 9.36755C18.1654 9.68492 18.5456 10.1118 18.8071 10.6107C19.0685 11.1096 19.2034 11.6651 19.1996 12.2283C19.2022 12.6787 19.1071 13.1243 18.9208 13.5344C18.7345 13.9445 18.4614 14.3092 18.1204 14.6035C17.9407 14.7756 17.8271 15.0053 17.7996 15.2526C17.7721 15.4999 17.8324 15.749 17.97 15.9563C18.0589 16.1167 18.1889 16.2505 18.3467 16.344C18.5044 16.4375 18.6842 16.4873 18.8676 16.4883H26.7236C27.2972 16.4883 27.2972 14.3835 26.7236 14.3835H20.8188C21.1256 13.7072 21.2823 12.9725 21.278 12.2299C21.2868 11.5032 21.1512 10.7819 20.8792 10.1079C20.6071 9.43398 20.204 8.82072 19.6932 8.30371C19.1824 7.78669 18.574 7.37621 17.9034 7.09605C17.2328 6.81589 16.5132 6.67163 15.7864 6.67163C15.0596 6.67163 14.34 6.81589 13.6694 7.09605C12.9988 7.37621 12.3904 7.78669 11.8796 8.30371C11.3688 8.82072 10.9657 9.43398 10.6936 10.1079C10.4216 10.7819 10.286 11.5032 10.2948 12.2299C10.2953 12.9692 10.4419 13.701 10.726 14.3835H4.63321C4.05561 14.3827 4.05561 16.4875 4.63321 16.4875Z" fill="#232323"/>
</svg>
