<svg width="30" height="31" viewBox="0 0 30 31" fill="none" xmlns="http://www.w3.org/2000/svg">
<path d="M4.43806 14.6421C4.43806 14.6421 8.01726 11.2773 9.55806 11.2773C11.0989 11.2773 13.5165 14.7829 15.1797 14.7829C16.8429 14.7829 19.2645 11.2773 20.8013 11.2773C22.3093 11.2773 25.8205 14.5773 25.8205 14.5773C26.1549 14.7853 27.2973 13.1557 26.8605 12.8685C26.8605 12.8685 22.6069 9.06686 20.8005 9.07166C19.1373 9.07566 16.8317 12.4629 15.1821 12.4581C13.5189 12.4541 11.2205 9.07006 9.55726 9.07166C7.76286 9.07166 3.49886 12.8685 3.49886 12.8685C3.05886 13.1565 4.29166 14.7397 4.43806 14.6421ZM4.43806 21.5877C4.43806 21.5877 8.01726 18.2229 9.55806 18.2229C11.0989 18.2229 13.5165 21.7285 15.1797 21.7285C16.8429 21.7285 19.2645 18.2229 20.8013 18.2229C22.3093 18.2229 25.8205 21.5229 25.8205 21.5229C26.1549 21.7309 27.2973 20.1357 26.8605 19.8485C26.8605 19.8485 22.6069 16.0469 20.8005 16.0517C19.1373 16.0557 16.8317 19.4429 15.1821 19.4381C13.5189 19.4341 11.2205 16.0493 9.55726 16.0517C7.75966 16.0541 3.49166 19.8477 3.49166 19.8477C3.05886 20.1357 4.29166 21.6877 4.43806 21.5877Z" fill="#232323"/>
</svg>
