<svg width="422" height="675" viewBox="0 0 422 675" fill="none" xmlns="http://www.w3.org/2000/svg">
<path fill-rule="evenodd" clip-rule="evenodd" d="M420.387 268.362C419.915 268.877 418.972 268.92 418.586 268.276C417.043 265.743 415.2 263.34 412.628 261.794C408.298 259.176 403.153 259.906 398.395 260.593C393.207 261.279 388.02 261.966 382.876 260.764C380.175 260.163 377.731 258.918 375.631 257.116C373.787 255.57 372.244 253.682 370.401 252.179C365.428 248.102 358.355 247.329 352.224 246.127C330.189 241.878 308.24 234.366 291.435 218.913C282.389 210.586 275.702 200.198 266.742 191.785C257.482 183.115 245.907 175.131 233.089 173.371C227.345 172.555 221.128 173.07 215.984 175.946C210.754 178.908 206.339 183.329 202.395 187.793C197.507 193.288 193.135 199.297 189.148 205.478C190.005 207.109 190.648 208.826 191.034 210.715C193.349 209.642 195.964 209.127 198.408 210.071C201.451 211.23 203.423 214.149 204.795 216.939C208.31 223.935 209.639 232.048 210.84 239.731C211.311 242.994 211.74 246.256 212.212 249.561C212.898 254.326 213.669 259.09 212.64 263.898C211.569 269.049 208.525 273.513 205.738 277.891C203.38 281.582 201.537 285.617 199.308 289.395C198.836 290.253 198.279 291.197 197.679 292.142C200.165 290.124 202.437 287.806 204.624 285.488C209.511 280.295 214.612 275.187 220.443 271.023C225.03 267.761 230.903 266.044 236.562 267.117C239.734 267.718 237.676 270.379 237.162 272.44C236.304 275.874 236.433 279.737 236.262 283.214C236.047 286.948 236.004 290.639 236.347 294.331C236.819 299.782 238.962 306.35 235.747 311.372C233.432 314.934 229.231 316.909 226.402 320.042C223.829 322.918 222.286 326.095 221.257 329.443C223.744 330.645 225.887 332.319 227.302 334.637C232.189 342.32 225.415 351.463 219.628 356.356C215.598 359.79 210.968 362.709 207.453 366.744C206.71 368.26 205.953 369.763 205.181 371.251C204.581 372.367 204.024 373.569 203.423 374.728C202.78 377.217 202.523 379.879 202.309 382.583C201.88 388.292 201.58 394.301 201.923 400.053C202.395 406.921 205.996 412.716 208.782 418.811C211.054 423.704 211.654 428.555 212.34 433.877C212.726 437.054 212.983 441.432 214.912 444.436C214.269 435.508 216.284 414.733 226.273 419.283C226.487 419.369 226.702 419.455 226.616 419.712C221.343 436.796 219.585 454.867 220.871 472.638C223.315 506.033 226.101 539.385 225.673 572.908C225.458 589.863 225.544 606.732 226.23 623.645C226.916 640.557 227.816 657.426 227.816 674.295C227.816 675.068 226.144 675.196 225.759 674.724C223.844 672.435 221.943 670.16 220.057 667.899C219.971 667.771 219.971 667.685 220.014 667.556C221.086 663.307 221.429 658.971 221.343 654.593C221.171 645.536 219.414 636.608 218.213 627.68C216.97 618.193 217.099 608.793 217.913 599.221C218.771 589.434 219.842 579.647 219.714 569.775C219.628 559.602 218.985 549.429 218.042 539.256C216.241 519.64 213.155 500.109 211.44 480.45C210.282 466.757 210.24 452.721 206.853 439.329C203.466 425.764 195.835 414.475 183.446 407.651C176.158 403.659 168.056 401.512 160.468 406.019C154.123 409.754 149.45 415.935 144.949 421.644C140.576 427.181 135.689 432.375 129.816 436.367C124.843 439.715 119.27 442.076 113.526 443.75C106.795 445.767 99.8501 446.969 92.9481 448.385C83.8597 450.188 75.2 453.236 66.4118 456.155C58.1379 458.902 49.6497 461.349 40.8614 461.692C36.9174 461.821 33.0162 461.263 29.0722 460.876C24.9138 460.447 19.7695 459.975 16.2542 462.808C10.2096 467.658 11.2384 484.571 0.34949 482.038C0.135141 481.995 -0.036254 481.823 0.00661568 481.566C3.90776 465.383 18.655 455.597 30.2727 445.08C36.103 439.844 41.2044 433.963 47.1633 428.855C53.0364 423.876 59.3811 419.412 66.1545 415.72C70.9988 413.059 76.0575 410.87 81.2447 409.067C79.187 408.08 77.2149 406.878 75.6287 405.418C71.8562 401.856 71.8991 397.692 73.3138 393.099C73.914 391.168 74.8142 389.107 74.7713 387.047C74.7285 384.772 73.1423 383.913 71.2989 383.527C70.7415 386.274 69.7555 389.322 67.2262 390.824C65.2542 392.026 62.8535 391.94 60.7529 391.168C55.4799 389.236 51.3215 383.956 48.3207 379.406C45.7056 375.415 42.2333 369.577 43.1336 364.555C44.3339 357.987 52.522 355.154 57.9236 353.223C64.8257 350.819 74.0853 348.93 78.3294 342.363C71.556 340.131 64.2682 342.706 57.3233 341.848C51.2358 341.118 46.263 337.598 41.8046 333.649C37.0032 329.443 32.6734 324.592 28.9866 319.356C23.0277 310.857 16.2542 296.992 25.6855 288.493C33.5736 281.411 43.8193 280.295 53.465 282.656C51.1072 278.578 48.7923 274.199 48.4065 269.478C48.1493 265.658 48.6208 261.837 48.3636 258.017C48.1492 254.969 47.1633 252.179 46.3059 249.304C44.8483 244.625 43.4765 240.247 46.6917 236.083C49.8212 232.091 54.2795 229 58.395 226.124C62.9392 222.991 67.655 220.115 72.1992 216.982C76.6147 213.934 80.6015 209.813 85.8316 208.01C89.8614 206.637 93.634 207.667 97.235 209.727C100.15 211.316 102.808 213.29 105.595 215.007C107.867 216.424 110.396 217.368 112.925 218.226C118.07 219.943 123.514 221.059 128.487 223.206C128.687 223.291 128.873 223.377 129.044 223.463C129.945 220.244 130.973 217.067 132.131 213.977C133.803 209.384 135.732 204.491 138.819 200.628C141.391 197.408 145.035 195.09 148.893 193.674C158.367 190.154 171.828 191.141 181.088 197.022C180.96 195.305 180.745 193.588 180.531 191.871C179.502 183.758 178.473 174.272 171.743 168.692C168.656 166.16 164.926 164.571 161.454 162.64C157.467 160.408 154.037 157.661 151.122 154.098C145.206 146.844 141.991 138.216 138.133 129.846C134.703 122.42 130.502 115.38 126.301 108.384C116.869 92.7164 106.752 77.1778 99.9786 60.094C93.9769 44.8989 90.9333 27.9009 97.7925 12.4483C98.1783 11.5898 99.9359 11.7186 99.8501 12.7917C99.7215 14.0794 99.85 15.3242 100.193 16.569C101.822 21.8486 107.31 25.2397 111.897 27.6434C117.555 30.6481 123.6 32.7514 129.559 35.1122C135.475 37.4301 140.791 40.7353 146.45 43.6541C153.995 47.6031 161.754 51.2087 168.785 56.0162C175.815 60.7808 181.645 66.6185 185.975 73.9585C190.991 82.5433 194.421 91.9437 197.893 101.215C199.351 105.25 201.194 109.242 202.266 113.406C203.166 116.926 203.423 120.574 203.295 124.223C202.995 132.249 200.723 140.062 198.236 147.659C193.478 162.039 186.661 177.148 187.776 192.601C193.135 183.544 201.323 176.504 209.554 169.98C217.785 163.412 226.487 157.145 233.132 148.861C236.433 144.783 239.262 140.105 240.763 135.04C242.306 129.588 241.02 124.695 239.177 119.544C237.462 114.693 236.562 110.058 237.29 104.95C237.934 100.314 239.091 95.721 240.591 91.2999C243.378 83.1443 248.051 72.542 257.011 69.6232C257.611 69.4515 258.297 69.5802 258.468 70.2241C259.968 75.5038 261.941 80.5688 263.484 85.8056C264.813 90.2268 265.97 94.9055 265.67 99.5842C265.456 102.889 264.341 106.152 263.098 109.242C265.156 107.096 266.956 104.778 267.985 102.074C272.915 89.3683 264.727 76.7057 264.384 63.9572C264.212 56.4026 265.199 48.805 266.613 41.422C268.285 32.7084 270.686 23.9519 274.63 15.968C277.717 9.78698 282.261 3.09082 289.163 0.815843C290.663 0.300754 292.249 0.0431987 293.836 0.000274619C294.95 0.000274619 295.636 -0.0426443 296.193 0.94461C296.922 2.27526 297.522 3.69174 298.165 5.06531C301.081 11.2464 303.653 17.5562 305.839 24.0378C313.899 48.204 316.814 79.6674 295.55 98.1248C286.548 105.937 275.316 110.315 265.927 117.526C261.169 121.175 256.41 125.854 254.61 131.777C254.31 132.722 254.31 133.838 253.881 134.739C253.624 135.383 253.152 135.941 252.809 136.542C252.666 136.799 252.523 137.057 252.38 137.315C257.31 134.524 262.626 132.464 267.728 129.974C270.772 128.515 273.772 126.884 276.43 124.738C279.174 122.506 281.146 119.759 283.118 116.84C289.42 107.525 295.207 97.7385 304.596 91.1711C310.298 87.2221 316.857 84.2603 323.716 83.1872C331.004 82.0712 338.377 82.9726 345.451 84.7325C352.267 86.4494 358.74 89.1537 365.385 91.2999C370.701 93.0597 376.102 94.5192 381.418 96.322C392.007 100.013 401.91 105.508 407.612 115.595C408.169 116.582 406.583 116.968 405.94 116.711C404.054 115.895 401.567 117.312 399.981 118.256C397.452 119.759 395.137 121.561 392.865 123.407C388.663 126.841 384.548 131.133 379.446 133.28C372.03 136.413 364.013 137.229 356.125 138.216C349.223 139.074 342.407 140.276 335.419 139.117C328.303 137.915 321.658 134.61 314.456 133.838C307.811 133.151 301.081 133.623 294.693 131.262C292.85 130.575 290.963 129.631 289.034 129.159C288.177 128.944 287.319 129.459 286.248 129.717C284.59 130.146 282.918 130.561 281.232 130.962C274.33 132.679 267.685 134.653 261.555 138.345C256.625 141.264 251.737 144.225 247.065 147.573C243.249 150.32 238.534 153.54 236.219 157.832C237.376 158.09 238.491 158.219 239.648 158.261C247.922 158.734 256.41 156.845 264.427 155.171C272.444 153.497 280.332 151.565 288.434 150.406C306.611 147.745 326.074 147.874 343.007 155.944C362.084 165.043 372.802 183.758 385.234 199.898C392.393 209.255 400.838 217.497 407.655 227.155C410.956 231.833 419.487 244.153 413.914 249.432C416.657 252.523 419.315 255.871 420.944 259.648C422.187 262.524 422.702 265.872 420.387 268.362ZM83.2168 408.423C91.5764 405.762 100.322 404.26 109.153 404.045C113.097 403.959 116.998 404.088 120.899 404.474C122.743 404.689 124.543 404.946 126.386 405.204C130.33 401.942 132.645 397.478 134.36 392.67C135.946 388.249 137.061 383.699 138.347 379.192C138.547 378.276 138.804 377.375 139.119 376.488C139.147 376.373 139.176 376.273 139.204 376.187C140.619 371.337 142.848 366.916 144.863 362.323C147.135 357.043 149.279 351.763 151.765 346.612C153.609 342.878 155.624 338.714 158.71 335.839C158.653 335.61 158.596 335.395 158.539 335.195C155.452 336.826 153.995 340.474 151.937 343.136C149.579 346.226 146.321 347.814 142.591 348.63C140.705 349.059 138.261 349.36 136.632 347.986C135.218 346.827 135.003 344.681 134.703 343.007C134.532 341.805 134.317 340.56 133.932 339.401C133.546 338.328 132.774 337.341 132.56 336.182C132.388 335.409 132.645 334.808 132.217 334.122C131.445 332.748 129.473 331.632 128.016 331.203C125.186 330.43 121.542 330.731 119.099 328.799C117.212 327.297 115.24 324.249 116.441 321.802C118.456 317.767 125.229 317.252 129.773 317.381C123.514 310.256 110.61 310.685 108.338 299.954C108.253 299.525 109.067 299.31 109.324 299.267C115.283 298.366 121.328 298.838 126.987 301.027C132.603 303.173 137.575 306.736 142.205 310.556C143.034 311.243 143.863 311.93 144.692 312.617C145.678 312.273 146.707 312.016 147.778 311.93C150.479 311.629 152.366 312.617 154.509 314.248C155.709 315.192 157.296 316.952 158.839 317.338C160.768 317.81 162.397 315.75 162.311 313.904C162.14 310.299 157.724 307.981 154.509 308.453C152.065 308.839 149.793 309.955 147.264 309.998C143.963 309.998 141.091 308.324 138.69 306.178C132.86 301.027 129.302 292.871 130.03 285.059C130.073 284.372 131.274 284.33 131.788 284.458C135.946 285.574 140.833 285.446 144.777 287.463C149.236 289.781 149.065 295.962 153.051 298.709C154.595 293.902 148.336 290.811 149.279 286.004C150.05 281.926 154.466 281.11 157.338 283.514C160.682 286.261 163.297 290.811 165.484 294.503C166.77 296.692 167.841 299.053 168.613 301.499C169.428 298.924 169.856 296.262 170.028 293.558C170.028 293.215 170.028 292.871 170.028 292.528C169.685 291.24 169.213 289.609 169.985 288.364C169.642 282.784 168.442 277.29 167.456 271.796C166.513 266.688 165.998 261.451 166.084 256.257C165.441 253.596 165.098 250.935 165.226 248.187C165.484 242.865 166.898 237.585 168.613 232.52C170.285 227.627 172.171 222.776 174.615 218.226C177.016 213.676 179.845 209.212 180.831 204.104C181.131 202.516 181.217 200.885 181.174 199.254C169.471 190.197 147.907 189.296 139.505 202.645C135.389 209.169 132.731 216.853 130.845 224.493C133.16 226.082 134.146 228.271 134.06 231.748C133.931 237.371 131.917 242.736 131.102 248.273C130.459 252.695 131.745 255.785 133.546 259.777C135.432 263.941 137.49 268.104 138.647 272.525C139.333 275.101 139.976 278.835 136.975 280.166C133.846 281.497 131.788 278.749 130.545 276.217C128.53 272.139 127.458 267.589 126.472 263.168C125.486 258.833 124.843 254.626 124.929 250.162C125.015 241.706 126.387 233.121 128.659 224.88C127.501 224.193 126.215 223.764 125.015 223.334C120.385 221.66 115.583 220.544 110.953 218.956C105.98 217.239 101.994 214.449 97.5352 211.702C93.2482 209.041 89.3899 207.324 84.5885 209.856C80.0871 212.217 76.3575 215.823 72.1562 218.656C67.9121 221.446 63.6252 224.107 59.5097 227.026C55.6085 229.73 51.4931 232.606 48.6208 236.383C45.4485 240.461 47.2061 245.14 48.6208 249.604C49.3496 252.008 50.1642 254.411 50.4214 256.901C50.7644 260.335 50.4213 263.812 50.4641 267.246C50.5499 272.611 52.6934 277.032 55.2227 281.668C55.5657 282.241 55.8945 282.827 56.2088 283.428C58.5667 284.158 60.8816 285.059 63.068 286.175C70.0558 289.609 76.2718 294.46 82.7022 298.795C87.0321 301.714 91.1476 304.332 96.2062 305.706C98.6926 306.393 115.455 309.741 112.583 314.634C111.039 317.252 106.581 316.093 104.309 315.45C99.5929 314.119 95.2202 311.93 90.676 310.084C85.8746 308.11 80.6874 308.067 75.6716 306.951C70.2701 305.792 66.4117 303.002 63.325 298.409C60.1956 293.773 57.1518 289.008 54.3224 284.158C54.2938 284.101 54.2654 284.043 54.2368 283.986C51.1073 283.042 47.892 282.484 44.5053 282.441C37.6461 282.441 29.6724 285.403 25.4712 291.069C22.0845 295.662 22.8132 301.456 24.5709 306.521C28.3863 317.424 36.4887 327.211 45.3627 334.422C50.4213 338.543 55.6085 341.118 62.2962 340.989C68.298 340.861 74.4283 339.487 80.2586 341.59C80.3872 341.676 80.7303 341.848 80.6017 342.062C76.7434 348.415 68.7697 350.69 62.2106 352.922C56.5518 354.854 48.1922 356.914 45.6629 363.052C43.8623 367.517 46.9917 373.268 49.178 377.003C51.9217 381.681 55.6085 386.532 60.3242 389.322C61.9961 390.309 64.1825 391.296 65.9401 390.095C68.2122 388.592 68.8981 385.244 69.3268 382.797C69.4125 382.282 70.5272 382.239 70.8702 382.282C72.8422 382.454 75.3715 382.883 76.4432 384.815C77.2577 386.317 76.829 388.163 76.4432 389.708C75.0714 394.902 72.7564 399.667 77.0434 404.217C78.6724 405.976 80.8589 407.35 83.2168 408.423ZM128.23 261.236C129.087 265.314 130.073 269.349 131.531 273.212C132.002 274.5 135.175 282.055 136.804 278.191C138.09 275.273 135.989 270.766 134.917 268.104C133.417 264.241 131.531 260.55 129.987 256.729C128.573 253.338 128.616 250.462 129.259 246.857C130.202 241.706 132.045 236.512 131.96 231.232C131.917 229.473 131.659 227.498 130.416 226.167C129.93 228.256 129.487 230.302 129.087 232.306C127.158 241.878 126.172 251.664 128.23 261.236ZM63.5823 295.232C66.4546 299.568 69.2841 303.645 74.4285 305.362C79.2299 306.908 84.4169 306.736 89.2612 308.11C92.9909 309.14 96.5063 311.071 100.107 312.531C101.822 313.217 109.539 316.952 110.653 314.291C111.725 311.844 106.109 310.084 104.652 309.569C101.051 308.238 97.3209 307.337 93.6769 306.307C89.4757 305.148 85.9175 302.873 82.2735 300.469C74.3426 295.189 66.2402 288.579 57.1519 285.016C59.2096 288.493 61.396 291.884 63.5823 295.232ZM417.129 256.944C415.671 254.712 414.042 252.609 412.242 250.591C411.784 250.82 411.284 251.035 410.741 251.235C410.313 251.364 409.541 251.364 409.327 250.849C408.698 249.275 407.983 247.758 407.183 246.299C406.754 245.526 406.326 244.782 405.897 244.067C395.437 233.98 383.776 225.137 371.987 216.681C360.841 208.74 349.438 201.143 337.648 194.189C334.219 192.172 330.703 190.111 327.06 188.523C323.93 187.149 319.729 186.377 316.256 185.604C309.226 184.016 302.109 182.814 295.165 180.968C291.521 179.981 287.92 179.166 284.19 178.736C280.675 178.307 277.116 178.135 273.558 177.835C266.828 177.32 260.226 176.333 253.881 173.972C243.206 169.937 230.774 162.125 219.757 169.379C218.985 169.894 217.356 169.207 218.256 168.263C219.057 167.462 219.914 166.718 220.829 166.031C229.874 159.549 242.864 160.966 253.152 162.811C266.871 165.215 280.203 169.765 293.278 174.53C298.851 176.547 304.424 178.65 310.04 180.625C316.771 182.986 323.587 184.96 330.232 187.622C339.449 191.27 348.409 195.477 357.24 200.027C364.913 203.976 372.63 208.01 379.575 213.204C386.434 218.312 392.779 224.193 398.395 230.632C401.781 234.452 405.04 238.572 407.698 242.994C409.298 244.539 410.841 246.113 412.327 247.715C412.442 247.83 412.542 247.944 412.628 248.059C415.071 245.097 412.713 239.989 411.341 237.113C408.684 231.705 404.997 226.725 401.224 222.004C398.18 218.141 394.922 214.363 391.621 210.715C386.263 204.791 381.504 198.481 376.831 192.043C370.701 183.63 364.656 175.088 357.068 167.919C350.209 161.438 341.892 156.716 332.847 153.969C315.228 148.604 296.236 150.278 278.445 153.883C270.9 155.386 263.441 157.274 255.853 158.562C251.866 159.206 247.836 159.764 243.807 159.978C240.677 160.107 237.419 160.107 234.418 159.206C233.947 159.034 233.647 158.605 233.861 158.09C234.933 155.686 236.862 153.669 238.791 151.866C241.277 149.548 244.064 147.488 246.85 145.513C251.995 141.95 257.439 138.473 262.969 135.469C269.486 131.906 276.859 130.275 284.018 128.515C284.99 128.286 285.962 128.043 286.934 127.785C287.705 127.614 288.563 127.227 289.377 127.356C289.806 127.399 290.277 127.699 290.706 127.828C292.592 128.558 294.479 129.288 296.365 129.932C303.61 132.55 311.584 131.219 319 132.807C325.816 134.267 332.204 137.272 339.192 137.83C342.836 138.087 346.437 137.787 350.038 137.315C354.282 136.757 358.569 136.241 362.856 135.64C369.629 134.739 377.003 133.494 382.662 129.374C387.206 126.068 391.278 122.119 395.865 118.814C398.309 117.097 401.481 114.865 404.654 114.822C398.052 104.52 386.777 99.7988 375.417 96.279C370.272 94.6909 365.128 93.2315 360.069 91.3857C353.253 88.8532 346.308 86.4065 339.106 85.2046C331.647 83.9169 323.887 84.1315 316.728 86.7499C310.769 88.9819 305.153 92.4159 300.566 96.8371C296.665 100.529 293.45 104.864 290.449 109.285C287.319 113.964 284.49 119.286 280.589 123.407C272.401 131.992 259.883 134.267 250.237 140.663C249.637 141.092 248.008 140.748 248.608 139.761C249.351 138.502 250.094 137.243 250.837 135.984C251.18 135.426 251.695 134.825 251.909 134.181C252.338 133.151 252.424 131.906 252.766 130.79C254.653 125.382 258.768 121.003 263.098 117.441C271.372 110.659 281.36 106.495 289.977 100.228C294.307 97.0517 298.337 93.3602 301.424 88.8961C304.767 84.0886 306.911 78.5085 308.197 72.7996C313.684 48.6762 304.853 23.1793 294.221 1.71724C285.69 1.58847 280.031 9.61528 276.602 16.5261C272.401 24.9392 270 34.2108 268.371 43.3965C267.042 50.9083 265.927 58.8492 266.699 66.4897C267.942 79.2811 276.431 93.7895 268.2 105.937C266.228 108.813 263.741 111.302 261.169 113.749C259.754 116.84 258.125 119.801 256.282 122.677C254.31 125.639 251.995 128.773 248.908 130.704C248.479 130.962 247.236 131.005 247.193 130.189C247.151 128.258 247.708 126.455 248.651 124.738C251.052 120.359 255.038 116.968 258.597 113.577C258.854 113.349 259.111 113.12 259.368 112.891C260.083 111.317 260.754 109.714 261.383 108.083C262.712 104.478 263.784 100.829 263.569 96.9659C263.012 88.1664 259.154 80.0108 256.667 71.6406C252.38 73.4864 249.38 77.5212 247.108 81.4702C244.278 86.4923 242.306 91.9866 240.891 97.5668C239.734 102.117 238.662 107.01 239.262 111.689C239.906 116.496 242.306 120.789 243.249 125.51C245.307 135.64 238.834 145.642 232.318 152.767C218.428 168.005 197.465 177.105 188.033 196.292C187.69 197.022 186.147 197.151 186.018 196.163C185.732 194.189 185.575 192.2 185.547 190.197C185.375 173.542 193.049 158.047 197.722 142.38C199.951 134.868 201.751 126.97 201.023 119.072C200.68 114.951 199.394 111.217 197.936 107.353C196.178 102.804 194.507 98.2106 192.749 93.6607C189.276 84.6895 185.461 75.3321 179.245 67.8633C173.8 61.2959 166.641 56.4884 159.182 52.4106C151.68 48.247 143.877 44.6843 136.504 40.306C131.788 37.516 126.386 35.8419 121.285 33.8245C115.498 31.5495 109.582 29.1028 104.609 25.3255C101.694 23.1364 99.25 20.3463 98.2212 17.0412C97.9925 17.6707 97.7923 18.3002 97.6208 18.9298C92.9909 35.4127 98.5211 52.6682 105.552 67.6057C113.268 84.0028 123.429 99.0691 132.474 114.736C136.547 121.69 139.976 128.858 143.234 136.241C147.093 144.955 151.808 154.184 160.039 159.549C166.684 163.927 174.572 166.245 178.43 173.843C180.231 177.363 181.002 181.269 181.688 185.132C182.417 189.339 183.017 193.588 183.232 197.838C183.26 198.095 183.275 198.338 183.275 198.567C185.118 200.027 186.747 201.744 188.076 203.675C193.82 194.833 200.208 186.205 208.268 179.294C212.512 175.689 217.099 172.856 222.672 171.825C228.588 170.752 234.718 171.439 240.463 173.242C252.895 177.105 263.827 185.518 272.701 194.876C277.074 199.469 280.717 204.619 284.919 209.341C288.82 213.762 293.064 217.926 297.651 221.66C306.353 228.7 316.385 233.808 326.931 237.499C332.89 239.603 338.977 241.277 345.065 242.822C351.195 244.367 357.54 245.097 363.627 246.857C366.457 247.629 369.115 248.745 371.43 250.505C373.487 252.094 375.117 254.025 377.003 255.742C381.547 259.734 387.72 260.077 393.465 259.477C398.352 259.004 403.411 257.717 408.341 258.446C413.271 259.176 416.872 262.095 419.615 266.044C419.615 266.015 419.615 265.987 419.615 265.958C420.687 262.953 418.672 259.391 417.129 256.944ZM195.664 295.232C192.234 300.04 187.69 304.332 181.817 302.83C181.517 304.375 180.96 305.877 180.145 307.294C177.916 311.114 174.572 314.033 171.743 317.381C169.171 320.429 166.641 325.15 169.642 328.842C172.729 332.619 179.502 330.001 183.232 328.842C187.176 327.683 190.991 326.567 195.064 326.138C199.094 325.751 203.166 325.708 207.196 326.052C210.926 326.395 215.384 327.039 219.328 328.541C220.743 324.592 223.058 320.987 226.144 318.111C228.888 315.535 232.789 313.604 234.375 310.041C235.447 307.637 235.447 304.976 235.19 302.401C234.847 298.795 234.161 295.189 234.032 291.541C233.861 288.107 234.032 284.673 234.247 281.239C234.461 278.363 234.375 275.273 235.061 272.44C235.318 271.581 236.519 269.692 236.262 268.791C235.962 267.503 232.832 268.061 231.846 268.061C224.258 268.319 218.471 274.071 213.198 278.921C208.182 283.514 204.066 288.965 198.708 293.172C197.707 293.945 196.693 294.631 195.664 295.232ZM154.638 299.825C154.38 300.34 153.394 300.512 152.88 300.297C150.479 299.31 149.022 297.679 147.864 295.318C146.75 293.043 145.806 289.953 143.491 288.536C141.562 287.291 138.819 287.034 136.632 286.605C135.132 286.347 133.589 286.089 132.088 285.789C131.745 294.331 136.675 305.191 144.949 308.367C147.907 309.526 150.394 308.281 153.266 307.637C155.495 307.122 157.724 307.165 159.825 308.11C161.625 308.925 163.469 310.342 164.155 312.23C165.269 310.127 166.47 308.067 167.541 306.049C166.512 300.598 164.069 295.962 160.982 291.326C159.611 289.18 158.239 286.991 156.481 285.145C155.581 284.201 154.037 282.527 152.708 283.557C151.594 284.372 151.208 286.004 151.38 287.248C152.023 291.884 157.467 294.76 154.638 299.825ZM214.055 352.064C217.485 346.183 217.099 339.788 218.085 333.349C218.285 332.176 218.556 331.017 218.899 329.872C214.012 327.64 207.925 327.082 203.08 326.91C199.222 326.824 195.321 326.996 191.463 327.683C187.133 328.456 183.017 330.258 178.645 331.16C175.429 331.847 171.142 332.49 168.399 330.172C166.684 328.713 166.084 326.524 166.255 324.335C165.526 325.365 164.712 326.309 163.769 327.211C163.426 327.554 162.097 327.94 161.797 327.34C160.854 325.322 160.639 323.262 160.939 321.073C161.111 319.957 161.368 318.883 161.711 317.853C161.111 318.154 160.468 318.368 159.782 318.497C157.467 318.883 155.624 317.295 153.909 315.922C152.58 314.892 151.122 313.475 149.45 313.046C148.25 312.745 146.878 313.003 145.678 313.432C148.936 316.136 152.194 318.883 155.366 321.716C157.338 323.476 159.568 325.623 160.254 328.327C161.24 332.276 157.338 334.465 154.08 335.28C150.265 336.225 145.292 336.182 141.82 334.122C137.918 331.804 139.548 328.112 142.12 325.537C139.719 324.807 136.847 323.391 136.804 320.6C136.804 318.154 138.819 316.05 140.619 314.72C141.334 314.205 142.091 313.747 142.891 313.346C141.048 311.801 139.162 310.256 137.233 308.796C129.302 302.744 120.599 299.01 110.568 300.169C113.225 310.47 126.772 309.912 132.517 317.724C132.946 318.283 131.574 318.54 131.316 318.54C126.687 318.24 114.04 319.27 119.656 326.653C121.842 329.529 125.143 329.314 128.358 330.044C130.502 330.473 133.203 331.675 134.36 333.692C134.617 334.207 134.532 334.551 134.618 335.109C134.703 336.182 135.089 336.954 135.518 337.899C136.332 339.616 136.632 341.419 136.932 343.264C137.233 344.81 137.49 346.956 139.119 347.686C141.905 348.887 146.707 346.355 148.593 344.509C152.323 340.904 153.566 335.538 158.967 333.778C159.353 333.649 160.168 333.649 160.382 334.122C160.468 334.35 160.554 334.579 160.639 334.808C161.025 334.765 161.411 334.808 161.454 335.195C161.668 337.684 161.883 340.732 163.469 342.792C164.54 344.209 166.255 344.767 167.842 345.411C172.171 347.128 176.287 349.488 179.202 353.223C182.46 357.343 183.532 362.494 184.818 367.474C186.404 373.483 189.491 379.106 192.149 384.815C192.749 384.471 193.349 384.114 193.949 383.742C197.507 381.467 199.479 378.162 201.366 374.599C202.094 371.809 203.209 369.276 205.181 366.916C205.267 366.801 205.352 366.701 205.438 366.615C206.167 365.156 206.939 363.739 207.71 362.323C209.639 358.76 212.04 355.541 214.055 352.064ZM144.435 325.408C141.519 328.155 140.019 331.975 144.563 333.821C149.965 336.053 162.44 333.993 156.824 325.966C154.638 322.832 151.337 320.6 148.507 318.197C146.964 316.866 145.421 315.535 143.877 314.205C141.863 315.278 139.848 316.909 139.162 319.055C138.09 322.403 141.477 324.034 144.177 324.807C144.435 324.85 144.692 325.15 144.435 325.408ZM190.305 385.802C189.791 384.715 189.262 383.613 188.719 382.497C186.061 376.917 183.66 371.466 182.117 365.413C180.702 359.833 178.859 354.639 174.358 350.862C172.3 349.145 169.985 347.814 167.584 346.784C166.17 346.183 164.669 345.754 163.34 344.981C162.226 344.337 161.454 343.436 160.897 342.363C159.482 348.887 154.723 354.897 151.037 360.134C147.693 364.898 143.406 370.264 141.262 376.101C140.919 377.275 140.591 378.448 140.276 379.621C140.076 380.651 139.976 381.681 139.976 382.712C139.933 386.618 141.691 390.309 144.563 392.842C147.007 395.031 150.736 395.117 153.823 395.074C163.469 395.031 173.372 392.455 182.417 389.15C185.075 388.163 187.733 387.09 190.305 385.802ZM199.779 396.533C199.822 390.953 199.865 385.373 200.465 379.836C200.465 379.807 200.465 379.778 200.465 379.75C200.265 380.065 200.051 380.351 199.822 380.608C198.065 382.969 195.278 384.6 192.663 385.974C195.235 391.554 197.25 397.306 196.95 403.659C196.907 404.431 195.492 404.431 195.021 404.174C187.219 400.139 178.302 397.993 169.599 397.349C165.398 397.005 160.854 396.92 156.824 398.25C152.923 399.495 149.708 402.07 146.149 404.002C140.019 407.35 133.846 407.307 127.072 406.449C120.856 411.084 112.368 413.102 104.952 413.617C99.6786 414.003 94.2342 413.66 89.1756 412.072C87.1179 411.428 84.8886 410.698 82.7451 409.754C75.1143 412.329 67.8264 415.849 61.053 420.227C54.5797 424.391 48.6209 429.241 43.0907 434.607C37.8606 439.629 32.8876 444.823 27.3574 449.587C17.1544 458.387 5.66546 467.487 2.19301 481.18C4.72233 481.48 6.17973 479.119 7.16573 477.016C9.30922 472.595 10.081 467.1 13.5106 463.323C18.0119 458.387 25.9427 459.374 31.9016 460.018C36.5744 460.533 41.1615 460.791 45.8772 460.233C50.6357 459.632 55.2657 458.473 59.8528 457.099C68.8983 454.395 77.6437 450.832 86.8607 448.6C100.322 445.338 114.769 444.265 126.772 436.753C133.203 432.761 138.39 427.267 143.063 421.343C147.478 415.763 152.023 409.797 158.153 405.934C170.285 398.207 184.604 404.603 194.378 413.317C204.409 422.331 208.782 435.122 210.754 448.128C212.983 462.722 213.155 477.617 214.869 492.34C217.27 513.029 220.142 533.676 221.343 554.494C221.9 564.538 222.157 574.582 221.343 584.627C220.614 594.37 219.242 604.071 219.328 613.858C219.414 631.586 226.53 649.785 222.157 667.427C223.329 668.858 224.501 670.275 225.673 671.677C225.544 653.434 224.515 635.191 223.829 616.948C223.186 600.036 223.572 583.167 223.615 566.212C223.615 549.257 222.929 532.259 221.9 515.304C221.386 506.848 220.786 498.392 220.1 489.936C219.499 481.823 218.599 473.754 218.428 465.684C218.042 450.274 219.928 434.779 224.43 420.056C217.442 417.866 216.456 442.891 217.399 446.969C217.57 447.699 215.813 447.699 215.427 447.484C213.884 446.583 212.898 445.123 212.169 443.449C210.368 439.157 210.24 434.263 209.639 429.714C209.339 427.439 209.039 425.078 208.268 422.889C207.153 419.669 205.438 416.622 203.938 413.531C201.194 407.994 199.694 402.757 199.779 396.533ZM159.096 337.727C155.924 341.462 153.866 346.484 151.937 350.776C149.965 355.111 148.207 359.49 146.235 363.825C147.779 361.679 149.279 359.618 150.694 357.644C154.509 352.15 159.868 344.853 159.096 337.727ZM103.194 405.418C96.892 405.976 90.719 407.264 84.7172 409.11C86.9036 410.011 89.1328 410.698 91.1477 411.299C96.8065 412.973 102.937 413.016 108.724 412.201C114.426 411.342 120.256 409.539 125.057 406.191C117.77 405.29 110.567 404.775 103.194 405.418ZM177.83 391.854C168.87 394.559 158.753 397.005 149.322 395.975C145.892 395.589 143.32 394.516 141.091 391.854C139.805 390.309 138.904 388.592 138.39 386.789C137.061 391.554 135.475 396.233 132.774 400.439C131.531 402.371 130.03 404.002 128.358 405.461C129.988 405.676 131.66 405.848 133.374 405.934C137.876 406.148 141.777 405.118 145.678 402.843C148.593 401.126 151.422 399.109 154.595 397.864C161.068 395.288 168.699 395.846 175.472 396.834C182.117 397.821 188.762 399.581 194.849 402.457C194.807 397.005 193.006 391.854 190.777 386.918C186.618 388.936 182.246 390.481 177.83 391.854ZM163.297 325.408C167.113 320.901 168.442 315.063 167.97 309.183C167.484 310.013 167.027 310.842 166.598 311.672C164.455 315.75 162.011 320.729 163.297 325.408ZM220.871 330.945C220.185 333.735 219.842 336.654 219.585 339.702C219.285 342.964 218.814 346.183 217.57 349.188C215.941 353.137 213.112 356.442 211.011 360.091C210.583 360.863 210.154 361.65 209.725 362.451C211.911 360.606 214.269 358.889 216.499 357.086C222.543 352.193 230.86 342.406 224.772 334.422C223.701 333.005 222.372 331.889 220.871 330.945ZM173.114 297.464C172.686 300.426 171.314 303.345 169.771 306.092C170.414 309.955 170.371 313.904 169.385 317.596C171.143 315.364 173.286 313.432 175.086 311.286C178.302 307.551 180.231 303.731 180.016 298.709C179.888 294.76 179.159 287.205 173.543 287.806C172.857 287.892 172.386 288.193 172.128 288.622C172.214 289.996 172.229 291.369 172.171 292.743C172.643 294.546 173.243 296.391 173.114 297.464ZM192.277 296.863C191.849 297.035 191.42 297.178 190.991 297.293C187.819 298.237 185.118 298.881 183.532 301.971C187.004 302.572 190.048 299.653 192.277 296.863ZM189.105 212.045C188.848 210.471 188.419 208.983 187.819 207.581C185.375 211.444 183.017 215.436 180.745 219.385C177.101 225.781 173.372 232.434 171.014 239.431C169.213 244.796 168.313 250.42 168.227 256.085C168.227 256.114 168.227 256.143 168.227 256.171C168.17 258.318 168.227 260.478 168.399 262.653C169.042 270.637 171.314 278.878 172 286.991C172.814 286.776 173.672 286.733 174.401 286.733C179.073 286.733 181.088 290.296 181.774 294.46C182.16 296.606 182.289 298.709 182.117 300.812C183.232 299.224 184.775 298.151 186.747 297.421C189.234 296.563 191.549 295.962 193.821 294.803C193.821 294.774 193.835 294.746 193.863 294.717C196.693 290.768 198.879 286.433 201.194 282.14C205.31 274.5 211.097 267.933 211.054 258.833C211.011 255.184 210.325 251.621 209.854 248.016C209.425 244.925 208.996 241.792 208.482 238.701C207.367 231.619 203.423 204.362 190.991 212.174C190.605 212.389 189.234 212.732 189.105 212.045ZM180.96 210.371C178.859 215.136 175.944 219.514 173.929 224.322C171.528 230.031 169.085 236.212 167.97 242.521C169.428 237.285 171.614 232.306 174.143 227.412C177.573 220.673 181.431 214.192 185.418 207.796C185.875 207.08 186.347 206.351 186.833 205.607C186.061 204.29 185.161 203.06 184.132 201.915C183.846 201.629 183.546 201.343 183.232 201.057C183.06 204.233 182.289 207.324 180.96 210.371ZM249.508 128C252.123 125.725 254.095 122.592 255.81 119.716C256.182 119.086 256.539 118.457 256.882 117.827C254.095 120.531 250.409 123.965 249.508 128ZM410.87 249.089C410.898 249.146 410.927 249.203 410.956 249.261C410.984 249.261 411.013 249.261 411.041 249.261C410.984 249.203 410.927 249.146 410.87 249.089ZM392.307 226.983C386.52 221.102 380.175 215.651 373.273 211.101C365.857 206.251 357.754 202.259 349.781 198.353C347.38 197.179 344.979 196.035 342.578 194.919C355.011 202.473 367.1 210.672 378.803 219.3C386.263 224.751 393.722 230.417 400.71 236.512C398.095 233.164 395.223 229.988 392.307 226.983ZM306.053 181.097C300.352 179.037 294.693 176.933 288.991 174.916C276.302 170.409 263.312 166.074 249.98 164.013C242.864 162.94 233.99 162.125 226.83 164.829C238.662 163.069 249.551 171.396 260.569 174.229C267.814 176.075 275.273 176.075 282.689 176.805C290.106 177.534 297.137 179.766 304.424 181.312C306.282 181.712 308.14 182.099 309.998 182.471C308.683 182.041 307.368 181.584 306.053 181.097Z" fill="white"/>
</svg>
