<svg width="122" height="32" viewBox="0 0 122 32" fill="none" xmlns="http://www.w3.org/2000/svg">
<path fill-rule="evenodd" clip-rule="evenodd" d="M21.367 27.5942C15.5328 30.0324 8.18605 27.5404 5.82142 21.3237C3.42292 15.0556 7.40158 7.95881 13.9699 6.65899C22.0602 4.69948 30.5132 13.614 25.6815 21.0672C24.9718 21.9567 23.4094 23.0994 22.3468 22.0811C21.6164 21.3811 21.5365 20.156 21.3281 19.2182C21.3157 19.1623 21.3328 19.1039 21.3734 19.0637L25.3335 15.1296L25.3368 15.1258C25.7083 14.7017 25.475 13.9978 24.9082 13.8952L24.9066 13.895L19.4337 13.0318C19.3813 13.0235 19.336 12.9907 19.3117 12.9434L16.7794 8.01173L16.7784 8.00995C16.5001 7.50367 15.7502 7.50367 15.4719 8.00995L15.4709 8.01181L12.9472 12.9422C12.9228 12.99 12.877 13.0229 12.8241 13.031C11.0082 13.3071 9.07804 13.6136 7.40068 13.8837L7.39558 13.8845L7.39056 13.8857C6.72792 14.0419 6.5758 14.755 7.0197 15.2345C8.24508 16.5581 9.59474 17.794 10.869 19.0558C10.9069 19.0934 10.9244 19.1471 10.9158 19.2002C10.6354 20.9385 10.3485 22.6765 10.07 24.4141C9.92909 25.2932 10.6803 25.6514 11.4098 25.2815L16.3898 22.7564C16.4359 22.7331 16.4894 22.7331 16.538 22.7579L17.8521 23.4282L17.8569 23.4302C18.1731 23.5638 18.487 23.2018 18.2974 22.9076L18.2952 22.9042L18.2929 22.9009C17.7207 22.1135 17.1611 21.2951 16.5608 20.5182C16.2278 20.0872 15.7379 19.8965 15.2242 20.1351L15.2218 20.1363L13.4446 21.0442L13.8453 18.5277L13.8456 18.5258C13.8796 18.2663 13.8083 18.0214 13.6169 17.8236L13.616 17.8227L11.8051 16.0164L14.3257 15.6171C14.5852 15.578 14.8158 15.4132 14.9352 15.1784L16.0922 12.9147L17.2494 15.1787C17.3679 15.4096 17.5925 15.5733 17.8476 15.6166L20.3866 16.0165L18.5745 17.8165L18.5715 17.8199C18.3248 18.098 18.2955 18.4258 18.4467 18.7633C18.9091 19.7956 19.3746 20.8265 19.8398 21.8576C20.5596 23.7218 22.5003 24.8973 24.4854 24.6816C28.32 24.3095 30.4401 19.6651 30.5132 16.2668C30.6128 11.6334 28.7484 8.27465 25.9841 5.62156C23.1864 2.93648 19.4471 1.44897 15.5649 1.47658C11.6327 1.44808 7.84925 2.97479 5.04293 5.72259C0.363182 10.3048 -0.308903 17.9404 2.48563 23.2641L2.48685 23.2664L2.48816 23.2687C3.78094 25.5271 5.42916 27.1811 7.62925 28.5555C11.7691 31.1418 17.5781 31.2526 21.6709 28.4517C22.1164 28.1468 21.9693 27.3425 21.367 27.5942Z" fill="#C22151"/>
<path d="M39.9576 4.29342H44.4308C44.5484 4.29342 44.5894 4.39177 44.6296 4.48272L54.4581 26.7247C54.5088 26.8397 54.422 26.9732 54.2964 26.9732H49.9013C49.7631 26.9732 49.691 26.9343 49.6366 26.8113L46.9813 20.8091H37.8971L35.982 25.1148L36.5994 26.7332C36.6428 26.8471 36.5559 26.9732 36.4341 26.9732H31.5626C31.4371 26.9732 31.35 26.8393 31.4012 26.7245L40.5298 6.15789L39.7967 4.54356C39.7445 4.42846 39.8312 4.29342 39.9576 4.29342ZM105.809 4.29342H120.608C120.704 4.29342 120.784 4.37263 120.784 4.47034V6.13626C120.784 6.17667 120.787 6.21702 120.77 6.25494L112.327 26.8321C112.295 26.9089 112.243 26.9732 112.151 26.9732H107.469C107.344 26.9732 107.259 26.8393 107.308 26.7248L115.684 8.00513L106.056 8.15442C105.963 8.15587 105.89 8.1083 105.87 8.0112L105.648 4.48182C105.641 4.37995 105.691 4.29342 105.809 4.29342ZM74.278 6.3104V11.4083H77.9617C78.0592 11.4083 78.1384 11.4874 78.1384 11.5852V14.4066C78.1384 14.5043 78.0592 14.5836 77.9617 14.5836H74.278V21.3375C74.278 22.0884 74.5354 22.7174 75.0522 23.2352C75.8479 24.0008 77.0213 23.982 78.0536 23.982C78.1751 23.982 78.2618 24.1076 78.2189 24.2214L77.1772 26.9815C77.1513 27.0504 77.0854 27.0959 77.0119 27.0959C75.1182 27.0959 72.8149 27.231 71.3719 25.7866C70.4912 24.9051 70.064 23.6371 70.064 22.0122V14.5836H67.085C66.964 14.5836 66.8773 14.4589 66.9192 14.3453L67.9609 11.5239C67.9866 11.4544 68.0527 11.4083 68.1267 11.4083H70.064V7.90508C70.064 7.83344 70.1071 7.76887 70.1733 7.74154L74.0338 6.14685C74.1482 6.09963 74.278 6.18657 74.278 6.3104ZM42.4102 10.4298L39.339 17.4805H45.5377L42.4102 10.4298ZM84.488 11.2172V12.798C85.9689 11.621 88.4344 10.2604 90.2901 11.4675C90.3546 11.5095 90.3846 11.5883 90.3644 11.6626L89.4758 14.9134C89.4499 15.0078 89.3484 15.0644 89.2545 15.036C87.786 14.5951 85.5206 13.6476 84.5799 15.4611V26.7963C84.5799 26.894 84.5007 26.9732 84.4032 26.9732H80.5121C80.4144 26.9732 80.3353 26.894 80.3353 26.7963V14.1467L79.4699 12.6233C79.414 12.5249 79.4669 12.3963 79.5757 12.3656L84.2634 11.0469C84.3744 11.0157 84.488 11.1018 84.488 11.2172ZM61.7572 11.0403C63.2457 11.0403 64.741 11.5466 65.9632 12.3903C66.0304 12.4367 66.0572 12.5234 66.0275 12.5999L64.8632 15.6053C64.8218 15.7129 64.6846 15.752 64.5924 15.6829C63.5413 14.8937 62.149 14.1542 60.8074 14.1542C59.7097 14.1542 59.3953 15.4112 59.9392 16.2036C60.357 16.7454 60.9603 17.0618 61.5986 17.2749C62.4484 17.5582 63.3147 17.7838 64.1266 18.1701C65.0351 18.5434 65.7989 19.2296 66.2074 20.1295C66.8033 21.4416 66.6287 23.2706 65.7247 24.3926C64.8558 25.4234 63.7056 26.0096 62.5473 26.6445C61.7441 27.0887 60.8667 27.3106 59.9189 27.3106C58.2692 27.3106 56.7635 26.8396 55.4063 25.8991C55.3391 25.8525 55.3126 25.7659 55.3422 25.6896L56.5677 22.5308C56.6084 22.4254 56.7414 22.3851 56.8338 22.4499C58.0997 23.3367 59.6167 24.2273 61.2057 24.2273C62.3596 24.2273 62.5508 22.7247 62.0344 21.9499C61.257 20.653 59.0076 20.4478 57.7322 19.8735C56.8751 19.4873 56.1556 18.8519 55.7413 18.0005C55.2503 16.7985 55.3642 15.351 55.9987 14.2236C56.3823 13.5837 56.9051 13.0817 57.5644 12.7193C58.832 11.9767 60.2318 11.0403 61.7572 11.0403ZM99.0979 11.0403C101.062 11.0403 103.025 11.7927 104.458 13.143C105.987 14.5829 106.782 16.6134 106.782 18.7001C106.782 21.368 105.355 23.9127 103.074 25.2953C101.895 25.9465 100.739 26.6978 99.4191 27.0287C97.7688 27.4926 96.0049 27.3661 94.4045 26.7761C88.7732 24.4698 87.8406 16.2459 93.403 13.1185C95.2087 12.0534 96.9192 11.0403 99.0979 11.0403ZM95.8324 14.5491C94.5292 15.5174 94.0048 17.1243 94.0048 18.7001C94.0048 20.1122 94.4948 21.5039 95.4301 22.5684C96.3911 23.6134 97.6814 24.166 99.0979 24.166C99.6277 24.166 100.134 24.0849 100.626 23.8843C101.787 22.8305 102.445 21.2741 102.445 19.7121C102.445 18.2949 101.956 16.8651 100.99 15.8144C100.075 14.8192 98.7034 14.2156 97.3515 14.2156C96.8306 14.2156 96.2693 14.2315 95.8324 14.5491Z" fill="#262626"/>
</svg>
