<?xml version="1.0" encoding="utf-8"?><svg viewBox="0 0 45 31" xmlns="http://www.w3.org/2000/svg" xmlns:xlink="http://www.w3.org/1999/xlink"><style>:root>svg{display:none}:root>svg:target{display:block}</style><svg fill="none" viewBox="0 0 45 30" id="arrow-left" xmlns="http://www.w3.org/2000/svg"><path d="M44 15H1m0 0c10 0 14.004-5 14.004-14M1 15c10 0 14.004 5 14.004 14" stroke="" stroke-width="3" stroke-linejoin="bevel"/></svg><svg fill="none" viewBox="0 0 45 30" id="arrow-right" xmlns="http://www.w3.org/2000/svg"><path d="M1 15h43m0 0c-10 0-14.004-5-14.004-14M44 15c-10 0-14.004 5-14.004 14" stroke="" stroke-width="3" stroke-linejoin="bevel"/></svg><svg fill="none" viewBox="0 0 30 31" id="blizn" xmlns="http://www.w3.org/2000/svg"><path d="M19.657 21.105V9.867c0-.068-.007-.135-.02-.202a7.767 7.767 0 0 0 3.853-2.267c.4-.39-1.013-1.85-1.417-1.46-.023.022-2.343 2.207-6.918 2.207-.02 0-.039.005-.059.006-.02 0-.038-.006-.058-.006-4.515 0-6.814-2.11-6.918-2.209C7.72 5.55 6.303 7.01 6.707 7.4a12.041 12.041 0 0 0 4.063 2.118 1.013 1.013 0 0 0-.045.282v11.427a12.038 12.038 0 0 0-4.019 2.105c-.4.388.442 1.742.71 1.742.26 0 .512-.1.702-.278.095-.09 2.395-2.21 6.92-2.21.02 0 .038-.004.058-.006.019-.001.038.007.058.007 4.518 0 6.818 2.113 6.92 2.209.189.181.44.282.703.282.267 0 1.113-1.356.709-1.746a7.847 7.847 0 0 0-3.829-2.226Zm-6.891-11.12c.75.127 1.51.19 2.272.189.02 0 .04-.005.058-.007.02-.001.039.007.059.007.805 0 1.609-.049 2.408-.147V20.7a19.797 19.797 0 0 0-2.408-.146c-.02 0-.039.005-.059.006-.02 0-.038-.006-.058-.006a13.472 13.472 0 0 0-2.272.189V9.985Z" fill="#232323"/></svg><svg fill="none" viewBox="0 0 30 31" id="deva" xmlns="http://www.w3.org/2000/svg"><path d="M25.18 19.368c1.87-3.752 1.632-7.183.464-9.52a1.397 1.397 0 0 0-.969-.72 1.366 1.366 0 0 0-.921.08 8.487 8.487 0 0 0-2.435 2.193 8.318 8.318 0 0 0-.22.282v-1.36c0-2.465-.863-5.063-3.36-5.063a4.902 4.902 0 0 0-3.552 1.905c-.52-1.185-1.11-1.905-2.474-1.905A4.203 4.203 0 0 0 8.45 7.004a10.965 10.965 0 0 0-2.867-3.483c-.466-.358-1.748 1.343-1.283 1.7.731.56 2.628 2.4 2.628 4.16v12.712c0 .59 2.12.59 2.12 0V9.544c.618-1.251 1.445-2.16 2.24-2.16.916 0 1.664 1.693 1.664 2.932v11.843c0 .59 2.12.59 2.12 0V10.314c0-.09 0-.67-.005-.761.617-1.252 1.448-2.17 2.247-2.17.917 0 1.665 1.692 1.665 2.931v11.738c-.01.362.014.725.07 1.083a8.393 8.393 0 0 1-1.948.943c-.535.24.022 2.045.429 2.045.146-.01.29-.04.429-.091a5.059 5.059 0 0 0 1.98-.922 7.89 7.89 0 0 0 2.948 2.728c.182.135.403.209.63.208.325 0 1.331-1.421.86-1.772-.871-.65-1.87-.886-2.732-2.4a13.8 13.8 0 0 0 3.534-4.506Zm-4.08-4.02a5.539 5.539 0 0 1 1.447-2.413c.432-.454 1.404-1.408 1.548-1.177.796 1.273.48 4.096-.85 6.738a10.88 10.88 0 0 1-2.145 3.03v-6.181.003Z" fill="#232323"/></svg><svg fill="none" viewBox="0 0 30 31" id="kozerog" xmlns="http://www.w3.org/2000/svg"><path d="M22.56 13.164a5.2 5.2 0 0 0-3.92 1.782 69.4 69.4 0 0 1-.067-1.932c-.084-3.348-.945-7.142-3.992-7.142-2.646 0-3.544 3.325-4.49 6.207-.24-.713-.532-1.36-.725-1.85-.907-2.299-2.772-3.76-4.728-3.76-.584-.001-.584 2.091-.001 2.091.843 0 2.338 1.272 2.999 2.806a21.248 21.248 0 0 1 1.492 5.006c.104.48 1.951.519 2.023.03.531-3.62 1.623-8.437 3.429-8.437.989 0 1.825 2.829 1.882 5.102-.031 1.828.15 3.654.542 5.44a6.543 6.543 0 0 1-3.374 3.625 19.023 19.023 0 0 1-4.692.728c-.575-.08-.88 1.988-.303 2.07 1.918-.025 3.825-.299 5.672-.814a8.08 8.08 0 0 0 3.9-2.99 5.18 5.18 0 1 0 4.352-7.962Zm0 8.22a3.064 3.064 0 1 1 3.087-3.063 3.079 3.079 0 0 1-3.088 3.063Z" fill="#232323"/></svg><svg fill="none" viewBox="0 0 30 31" id="lev" xmlns="http://www.w3.org/2000/svg"><path d="M23.65 23.605c-.766 1.287-2.412 2.747-3.808 1.975-1.31-.724-1.89-3.242-.056-7.081 2.236-4.682 2.633-9.23 1.037-11.872a4.793 4.793 0 0 0-4.208-2.338 5.16 5.16 0 0 0-4.73 2.3c-1.169 1.8-1.374 3.565-.658 6.591-.44-.134-.899-.203-1.36-.203a4.806 4.806 0 1 0 4.504 3.313 1.014 1.014 0 0 0-.08-.333c-1.673-3.709-1.962-6.363-.734-8.254a3.2 3.2 0 0 1 3.013-1.39 2.814 2.814 0 0 1 2.546 1.373c1.226 2.027.782 5.925-1.131 9.93-2.419 5.064-1.288 8.544.905 9.747.52.282 1.1.435 1.692.446 1.968.063 3.954-1.76 4.784-3.16.284-.478-1.43-1.523-1.716-1.044ZM9.866 20.556a2.778 2.778 0 1 1 2.742-2.777 2.763 2.763 0 0 1-2.742 2.777Z" fill="#232323"/></svg><svg fill="none" viewBox="0 0 30 31" id="oven" xmlns="http://www.w3.org/2000/svg"><path d="M26.63 7.594a4.177 4.177 0 0 0-3.656-1.713c-3.96 0-6.345 4.48-7.577 9.729-1.23-5.25-3.615-9.73-7.576-9.73a4.178 4.178 0 0 0-3.656 1.713c-1.693 2.431-.108 5.425.305 6.58.207.579 2.285-.176 2.08-.755-.682-1.91-1.38-3.388-.576-4.544a1.969 1.969 0 0 1 1.847-.764c1.287 0 3.145.938 4.688 5.405a37.58 37.58 0 0 1 1.743 11.559c0 .615 2.293.615 2.293 0-.026-3.92.562-7.82 1.742-11.559 1.544-4.467 3.402-5.405 4.688-5.405a1.97 1.97 0 0 1 1.849.766c.805 1.156.113 2.634-.57 4.544-.206.578 1.871 1.334 2.08.755.41-1.156 1.99-4.15.296-6.58Z" fill="#232323"/></svg><svg fill="none" viewBox="0 0 30 31" id="rak" xmlns="http://www.w3.org/2000/svg"><path d="M26.115 18.001a4.7 4.7 0 1 0-9.397 0 4.816 4.816 0 0 0 2.067 3.967 19.727 19.727 0 0 1-4.497.496c-.024 0-.045.005-.07.007-.023.001-.045-.007-.069-.007-5.482 0-8.35-2-8.383-2.025-.446-.323-1.594 1.322-1.149 1.646.134.099 3.36 2.4 9.532 2.4.024 0 .046-.005.07-.007.023-.002.045.007.07.007 5.25 0 8.368-1.665 9.265-2.222A4.803 4.803 0 0 0 26.114 18Zm-4.699 2.77a2.77 2.77 0 1 1 2.72-2.769 2.78 2.78 0 0 1-1.244 2.32.985.985 0 0 0-.217.114l-.096.064c-.362.177-.76.27-1.163.27ZM8.901 17.148a4.75 4.75 0 0 0 4.698-4.792 4.816 4.816 0 0 0-2.072-3.972 19.877 19.877 0 0 1 4.502-.49c.024 0 .046-.006.07-.008.023-.002.045.007.068.007 5.47 0 8.338 1.994 8.384 2.025a.971.971 0 0 0 .572.186c.308 0 1.023-1.508.577-1.832-.134-.099-3.36-2.4-9.533-2.4-.024 0-.046.005-.068.007-.023.001-.047-.003-.07-.003-5.249 0-8.366 1.664-9.264 2.222A4.8 4.8 0 0 0 4.2 12.356a4.75 4.75 0 0 0 4.701 4.792Zm0-7.56a2.77 2.77 0 1 1-2.716 2.768 2.782 2.782 0 0 1 1.234-2.32.97.97 0 0 0 .23-.123l.08-.056c.365-.178.766-.27 1.172-.268Z" fill="#232323"/></svg><svg fill="none" viewBox="0 0 30 31" id="ribi" xmlns="http://www.w3.org/2000/svg"><path d="M22.894 24.817c-.023-.027-2.16-2.72-2.537-7.68h2.125c.64 0 .64-2.22 0-2.22h-2.17c.183-5.426 2.54-8.184 2.586-8.24.416-.48-1.33-1.994-1.75-1.512-.124.143-2.96 3.38-3.151 9.752h-4.313c-.188-6.372-3.307-9.61-3.433-9.75-.417-.48-2.16 1.028-1.749 1.512.026.028 2.682 2.787 2.866 8.237H8.68c-.64 0-.64 2.22 0 2.22h2.64a13.872 13.872 0 0 1-2.82 7.686c-.415.48 1.52 1.775 1.749 1.513a15.938 15.938 0 0 0 3.391-9.2h4.395c.395 5.83 2.992 9.062 3.111 9.2.232.262 2.168-1.036 1.748-1.518Z" fill="#232323"/></svg><svg fill="none" viewBox="0 0 30 31" id="scorp" xmlns="http://www.w3.org/2000/svg"><path d="m28.417 23.982-2.837-2.88c-.387-.395-1.815 1.002-1.429 1.396l1.22 1.232c-.986.08-2.584.03-3.472-.713a2.105 2.105 0 0 1-.693-1.727V9.867c0-2.303-1.132-4.753-3.484-4.753a4.617 4.617 0 0 0-3.318 1.792c-.491-1.096-1.07-1.793-2.35-1.793a3.932 3.932 0 0 0-3.04 1.652 10.278 10.278 0 0 0-2.709-3.247c-.439-.334-1.65 1.252-1.21 1.59.689.523 2.143 2.243 2.143 3.885v12.436c0 .552 2.13.552 2.13 0V9.067c.585-1.17 1.547-1.925 2.298-1.925.865 0 1.594 1.567 1.594 2.724V21.49c0 .552 2 .552 2 0V9.867c0-.097 0-.732-.005-.83.588-1.166 1.332-1.895 2.08-1.895 1.41 0 1.875 1.568 1.875 2.725v11.42a4.085 4.085 0 0 0 1.404 3.26 6.366 6.366 0 0 0 4.047 1.207c.224 0 .434-.008.625-.019l-1.256 1.262c-.283.3 1.155 1.68 1.35 1.476l3.04-3.098a.998.998 0 0 0-.003-1.393Z" fill="#232323"/></svg><svg fill="none" viewBox="0 0 30 31" id="strelec" xmlns="http://www.w3.org/2000/svg"><path d="M24.924 6.18a1.06 1.06 0 0 0-.8-.307l-8.97.24c-.585.027-.634 2.16-.047 2.13l6.528-.05-8.552 8.378-2.843-2.825c-.414-.411-1.913 1.079-1.499 1.49l2.842 2.826-4.912 4.885c-.414.412 1.107 1.808 1.499 1.49l4.913-4.885 2.928 2.912c.437.36 1.799-1.193 1.385-1.6l-2.814-2.8 8.467-8.457-.183 6.704c-.028.582 1.953.665 1.98.101l.387-9.44a1.051 1.051 0 0 0-.309-.792Z" fill="#232323"/></svg><svg fill="none" viewBox="0 0 30 31" id="telec" xmlns="http://www.w3.org/2000/svg"><path d="M25.88 6.216c-4.7-1.189-6.207 1.058-7.418 2.86-.916 1.366-1.092 2.987-3.156 2.987-.037 0-.072.007-.107.01h-.08a1.027 1.027 0 0 0-.106-.01c-2.064 0-2.24-1.35-3.157-2.72-1.21-1.798-2.717-4.357-7.416-3.167-.56.142-.038 2.168.522 2.014 4.612-1.264 5.273 4.625 6.644 4.935a6.452 6.452 0 1 0 10.05 5.38 6.41 6.41 0 0 0-2.949-5.38c1.6-.332 1.888-6.17 6.645-4.895.564.15 1.088-1.875.528-2.014ZM15.16 22.854a4.35 4.35 0 1 1 4.4-4.35 4.378 4.378 0 0 1-4.4 4.35Z" fill="#232323"/></svg><svg fill="none" viewBox="0 0 30 31" id="vesi" xmlns="http://www.w3.org/2000/svg"><path d="M26.724 19.963H4.634c-.575 0-.575 2.042 0 2.042h22.09c.574-.003.574-2.041 0-2.041Zm-22.09-3.476h7.76a1.027 1.027 0 0 0 .764-.344 1.01 1.01 0 0 0 .134-1.553 3.435 3.435 0 1 1 5.908-2.362 3.114 3.114 0 0 1-1.08 2.376 1.061 1.061 0 0 0-.15 1.352 1.032 1.032 0 0 0 .898.532h7.856c.573 0 .573-2.104 0-2.104h-5.905a5.14 5.14 0 0 0 .459-2.154 5.493 5.493 0 1 0-10.983 0c0 .74.147 1.471.431 2.153H4.633c-.577 0-.577 2.105 0 2.105Z" fill="#232323"/></svg><svg fill="none" viewBox="0 0 30 31" id="vodol" xmlns="http://www.w3.org/2000/svg"><path d="M4.438 14.642s3.58-3.365 5.12-3.365 3.959 3.506 5.622 3.506c1.663 0 4.085-3.506 5.621-3.506 1.508 0 5.02 3.3 5.02 3.3.334.208 1.476-1.421 1.04-1.709 0 0-4.254-3.801-6.06-3.796-1.664.004-3.97 3.39-5.619 3.386-1.663-.004-3.962-3.388-5.625-3.386-1.794 0-6.058 3.796-6.058 3.796-.44.288.793 1.872.94 1.774Zm0 6.946s3.58-3.365 5.12-3.365 3.959 3.506 5.622 3.506c1.663 0 4.085-3.506 5.621-3.506 1.508 0 5.02 3.3 5.02 3.3.334.208 1.476-1.387 1.04-1.674 0 0-4.254-3.802-6.06-3.797-1.664.004-3.97 3.39-5.619 3.386-1.663-.004-3.962-3.389-5.625-3.386-1.797.002-6.065 3.796-6.065 3.796-.433.288.8 1.84.946 1.74Z" fill="#232323"/></svg></svg>